<?xml version="1.0" encoding="UTF-8"?>
<!--Generator: Apple Native CoreSVG 175.5-->
<!DOCTYPE svg
PUBLIC "-//W3C//DTD SVG 1.1//EN"
       "http://www.w3.org/Graphics/SVG/1.1/DTD/svg11.dtd">
<svg version="1.1" xmlns="http://www.w3.org/2000/svg" xmlns:xlink="http://www.w3.org/1999/xlink" width="151.172" height="130.852">
 <g>
  <rect height="130.852" opacity="0" width="151.172" x="0" y="0"/>
  <path d="M0 125.297C0 128.672 2.25 130.852 5.625 130.852L145.477 130.852C148.57 130.852 151.172 128.391 151.172 125.227C151.172 122.133 148.57 119.602 145.477 119.602L13.2891 119.602C11.8125 119.602 11.3203 119.109 11.3203 117.633L11.3203 6.46875C11.3203 3.44531 8.78906 0.84375 5.69531 0.84375C2.53125 0.84375 0 3.44531 0 6.46875ZM7.38281 81.5625L52.5938 55.4062L85.1484 83.3203L143.016 48.8672L138.586 41.6953L85.7109 73.1953L53.2969 45.4219L7.38281 71.9297ZM51.6797 64.8984C58.5703 64.8984 64.1953 59.2734 64.1953 52.3828C64.1953 45.4922 58.5703 39.9375 51.6797 39.9375C44.7891 39.9375 39.1641 45.4922 39.1641 52.3828C39.1641 59.2734 44.7891 64.8984 51.6797 64.8984ZM84.8672 90.7031C91.7578 90.7031 97.3125 85.0781 97.3125 78.1875C97.3125 71.2969 91.7578 65.7422 84.8672 65.7422C77.9766 65.7422 72.3516 71.2969 72.3516 78.1875C72.3516 85.0781 77.9766 90.7031 84.8672 90.7031ZM137.883 58.7109C144.773 58.7109 150.398 53.0859 150.398 46.1953C150.398 39.3047 144.773 33.6797 137.883 33.6797C130.992 33.6797 125.367 39.3047 125.367 46.1953C125.367 53.0859 130.992 58.7109 137.883 58.7109Z" fill="#ffffff" fill-opacity="0.85"/>
 </g>
</svg>
