<?xml version="1.0" encoding="UTF-8"?>
<!--Generator: Apple Native CoreSVG 175.5-->
<!DOCTYPE svg
PUBLIC "-//W3C//DTD SVG 1.1//EN"
       "http://www.w3.org/Graphics/SVG/1.1/DTD/svg11.dtd">
<svg version="1.1" xmlns="http://www.w3.org/2000/svg" xmlns:xlink="http://www.w3.org/1999/xlink" width="174.797" height="129.586">
 <g>
  <rect height="129.586" opacity="0" width="174.797" x="0" y="0"/>
  <path d="M40.9922 79.3828L29.6719 79.3828L29.6719 107.789C29.6719 122.273 37.0547 129.586 51.75 129.586L147.797 129.586C162.492 129.586 169.875 122.344 169.875 107.789L169.875 79.3828L158.555 79.3828L158.555 108.422C158.555 114.961 155.039 118.266 148.852 118.266L50.8359 118.266C44.5781 118.266 40.9922 114.961 40.9922 108.422ZM9.5625 17.5078C14.3438 17.5078 18.2109 13.6406 18.2109 8.85938C18.2109 4.07812 14.3438 0.210938 9.5625 0.210938C4.78125 0.210938 0.914062 4.07812 0.914062 8.85938C0.914062 13.6406 4.78125 17.5078 9.5625 17.5078ZM9.5625 45.4219C14.3438 45.4219 18.2109 41.5547 18.2109 36.7734C18.2109 31.9922 14.3438 28.125 9.5625 28.125C4.78125 28.125 0.914062 31.9922 0.914062 36.7734C0.914062 41.5547 4.78125 45.4219 9.5625 45.4219ZM9.5625 101.32C14.3438 101.32 18.2109 97.4531 18.2109 92.6719C18.2109 87.8906 14.3438 83.9531 9.5625 83.9531C4.78125 83.9531 0.914062 87.8906 0.914062 92.6719C0.914062 97.4531 4.78125 101.32 9.5625 101.32ZM9.5625 129.305C14.3438 129.305 18.2109 125.438 18.2109 120.656C18.2109 115.875 14.3438 111.938 9.5625 111.938C4.78125 111.938 0.914062 115.875 0.914062 120.656C0.914062 125.438 4.78125 129.305 9.5625 129.305ZM9.5625 74.3203C14.7656 74.3203 19.125 69.9609 19.125 64.7578C19.125 59.5547 14.7656 55.1953 9.5625 55.1953C4.35938 55.1953 0 59.5547 0 64.7578C0 69.9609 4.35938 74.3203 9.5625 74.3203ZM174.797 64.8281C174.797 62.0859 172.617 59.9062 169.875 59.9062L13.7812 59.9062L13.7812 69.8203L169.875 69.8203C172.617 69.8203 174.797 67.5703 174.797 64.8281ZM29.6719 50.2734L40.9922 50.2734L40.9922 21.3047C40.9922 14.7656 44.5781 11.4609 50.8359 11.4609L148.852 11.4609C155.039 11.4609 158.555 14.7656 158.555 21.3047L158.555 50.2734L169.875 50.2734L169.875 21.9375C169.875 7.38281 162.492 0.140625 147.797 0.140625L51.75 0.140625C37.0547 0.140625 29.6719 7.45312 29.6719 21.9375Z" fill="#ffffff"/>
 </g>
</svg>
